<?xml version="1.0" standalone="no"?>
<!DOCTYPE svg PUBLIC "-//W3C//DTD SVG 20010904//EN"
 "http://www.w3.org/TR/2001/REC-SVG-20010904/DTD/svg10.dtd">
<svg version="1.0" xmlns="http://www.w3.org/2000/svg"
 width="370.000000pt" height="523.000000pt" viewBox="0 0 370.000000 523.000000"
 preserveAspectRatio="xMidYMid meet">

<g transform="translate(0.000000,523.000000) scale(0.100000,-0.100000)"
fill="#000000" stroke="none">
<path d="M2392 5090 c-339 -48 -596 -302 -677 -670 -25 -114 -30 -363 -11
-489 57 -373 278 -638 600 -721 110 -28 301 -28 412 0 334 84 556 365 605 767
14 109 6 334 -15 430 -43 200 -112 329 -246 464 -83 83 -109 103 -191 143 -52
25 -123 52 -159 60 -84 20 -238 27 -318 16z m290 -230 c216 -68 363 -249 412
-510 23 -117 21 -320 -4 -440 -52 -253 -214 -439 -429 -495 -82 -21 -226 -21
-305 0 -222 59 -373 238 -431 510 -17 83 -20 323 -4 411 53 304 244 506 514
548 55 8 184 -4 247 -24z"/>
<path d="M90 4970 l0 -100 295 0 295 0 0 -830 0 -830 110 0 110 0 0 830 0 830
295 0 295 0 0 100 0 100 -700 0 -700 0 0 -100z"/>
<path d="M1500 2625 l0 -175 95 0 c57 0 95 4 95 10 0 6 -35 10 -85 10 l-85 0
0 165 c0 103 -4 165 -10 165 -6 0 -10 -65 -10 -175z"/>
<path d="M1760 2775 c0 -8 7 -15 15 -15 8 0 15 7 15 15 0 8 -7 15 -15 15 -8 0
-15 -7 -15 -15z"/>
<path d="M2130 2740 c0 -23 -4 -30 -20 -30 -11 0 -20 -4 -20 -10 0 -5 9 -10
20 -10 19 0 20 -7 20 -103 0 -90 3 -106 19 -121 12 -11 30 -16 48 -14 25 4 26
5 8 12 -50 19 -50 19 -53 125 l-3 101 25 0 c14 0 28 5 31 10 4 6 -7 10 -24 10
-28 0 -31 3 -31 30 0 17 -4 30 -10 30 -5 0 -10 -13 -10 -30z"/>
<path d="M1913 2705 c-37 -16 -51 -53 -35 -90 8 -17 27 -29 66 -40 64 -19 81
-35 72 -70 -12 -47 -103 -57 -126 -14 -11 20 -30 26 -30 9 0 -27 41 -50 90
-50 59 0 90 24 90 68 0 36 -23 57 -80 72 -56 15 -70 26 -70 56 0 24 33 54 61
54 10 0 31 -12 48 -26 22 -18 31 -21 31 -11 0 38 -68 63 -117 42z"/>
<path d="M1760 2580 c0 -80 4 -130 10 -130 6 0 10 50 10 130 0 80 -4 130 -10
130 -6 0 -10 -50 -10 -130z"/>
<path d="M2667 2009 c-151 -20 -305 -92 -418 -196 -136 -126 -224 -295 -266
-512 -22 -118 -22 -366 1 -484 71 -370 296 -621 620 -692 119 -27 333 -18 439
18 386 132 600 532 557 1037 -23 263 -105 456 -259 611 -126 125 -272 196
-451 218 -95 12 -126 12 -223 0z m224 -213 c121 -22 201 -65 294 -160 112
-114 163 -221 190 -405 45 -294 -21 -568 -175 -735 -94 -102 -203 -157 -342
-174 -313 -38 -567 151 -650 484 -32 129 -32 380 0 509 66 262 237 439 466
480 92 17 125 17 217 1z"/>
<path d="M200 1060 l0 -932 378 5 c433 5 471 10 642 94 80 39 110 61 186 138
80 80 98 104 142 195 90 185 124 396 103 627 -39 412 -243 677 -596 775 -75
20 -106 22 -467 26 l-388 3 0 -931z m823 697 c129 -45 224 -116 296 -220 42
-62 68 -125 94 -227 31 -124 30 -368 -1 -495 -61 -243 -202 -395 -427 -458
-58 -17 -111 -21 -317 -25 l-248 -4 0 732 0 732 263 -4 c255 -4 264 -4 340
-31z"/>
</g>
</svg>
